<svg width="36" height="36" viewBox="0 0 36 36" fill="none" xmlns="http://www.w3.org/2000/svg">
<g id="BRINC Ball opt 2 1" clip-path="url(#clip0_17655_9017)">
<path id="Vector" d="M23.7996 0.935655H22.0217V0.318258L21.885 0.280068C20.6118 0.0926512 19.3266 -0.000952708 18.0398 1.14021e-05H18.0048C16.7052 -0.00118911 15.4073 0.0924112 14.1214 0.280068L13.9942 0.318258V0.95475H12.2703H12.2036C11.2135 1.2932 10.2556 1.71921 9.34111 2.22773C5.72296 4.21833 2.89899 7.39339 1.3429 11.2203C-0.213183 15.0472 -0.40672 19.2932 0.794757 23.2459C1.99623 27.1987 4.51964 30.6178 7.94167 32.9297C11.3637 35.2416 15.4762 36.3056 19.5893 35.9433C23.7024 35.581 27.5658 33.8145 30.5316 30.9399C33.4973 28.0654 35.385 24.2577 35.8778 20.1557C36.3707 16.0537 35.4388 11.9069 33.2385 8.41085C31.0382 4.91481 27.7033 2.28224 23.7933 0.95475L23.7996 0.935655ZM14.3122 0.579219C15.5467 0.401184 16.7925 0.313963 18.0398 0.318258C19.2655 0.319603 20.4898 0.405735 21.7037 0.576037V0.977027H14.3122V0.579219ZM12.3085 1.34937H23.6979C24.4144 1.59479 25.1135 1.88824 25.7906 2.22773H10.2062C10.8878 1.89098 11.59 1.59761 12.3085 1.34937ZM18.0016 35.5736C14.099 35.5753 10.3069 34.2773 7.22304 31.8842C4.13919 29.4911 1.93905 26.139 0.969488 22.3565C-7.5262e-05 18.5739 0.316093 14.5761 1.86815 10.9932C3.4202 7.41032 6.11985 4.44624 9.54148 2.56826L9.59873 2.54598H26.3981C29.8239 4.41762 32.5297 7.37689 34.0889 10.9573C35.6482 14.5376 35.9723 18.5355 35.01 22.3205C34.0478 26.1055 31.8539 29.4624 28.7744 31.862C25.6948 34.2616 21.9047 35.5674 18.0016 35.5736Z" fill="white"/>
<path id="Vector_2" d="M14.3122 0.925781V0.976701H21.7005V0.928964L14.3122 0.925781Z" fill="white"/>
<path id="Vector_3" d="M18.5391 23.0613C18.5391 23.1676 18.5076 23.2716 18.4485 23.3601C18.3894 23.4485 18.3055 23.5175 18.2073 23.5582C18.1091 23.5989 18.001 23.6095 17.8967 23.5888C17.7925 23.568 17.6967 23.5168 17.6215 23.4416C17.5463 23.3664 17.4952 23.2705 17.4744 23.1662C17.4537 23.0619 17.4643 22.9537 17.505 22.8555C17.5457 22.7572 17.6146 22.6732 17.703 22.6141C17.7914 22.555 17.8953 22.5234 18.0016 22.5234C18.1439 22.5243 18.2801 22.5812 18.3807 22.6819C18.4814 22.7826 18.5383 22.9189 18.5391 23.0613Z" fill="white"/>
<path id="Vector_4" d="M16.9011 19.5034C16.9018 19.6101 16.8707 19.7145 16.8119 19.8034C16.7531 19.8923 16.6691 19.9618 16.5708 20.0029C16.4725 20.044 16.3641 20.0549 16.2596 20.0342C16.155 20.0136 16.0589 19.9623 15.9836 19.8869C15.9082 19.8115 15.857 19.7154 15.8363 19.6107C15.8157 19.5061 15.8266 19.3977 15.8677 19.2993C15.9087 19.2009 15.9781 19.1169 16.067 19.0581C16.1559 18.9992 16.2602 18.9681 16.3668 18.9688C16.5085 18.9688 16.6444 19.0251 16.7446 19.1254C16.8448 19.2256 16.9011 19.3616 16.9011 19.5034Z" fill="white"/>
<path id="Vector_5" d="M13.5743 19.5034C13.575 19.6101 13.5439 19.7145 13.4851 19.8034C13.4263 19.8923 13.3424 19.9618 13.244 20.0029C13.1457 20.044 13.0373 20.0549 12.9328 20.0342C12.8282 20.0136 12.7321 19.9623 12.6568 19.8869C12.5814 19.8115 12.5302 19.7154 12.5095 19.6107C12.4889 19.5061 12.4998 19.3977 12.5409 19.2993C12.5819 19.2009 12.6513 19.1169 12.7402 19.0581C12.8291 18.9992 12.9334 18.9681 13.04 18.9688C13.1817 18.9688 13.3176 19.0251 13.4178 19.1254C13.518 19.2256 13.5743 19.3616 13.5743 19.5034Z" fill="white"/>
<path id="Vector_6" d="M10.5147 19.5034C10.5147 19.6093 10.4833 19.7128 10.4244 19.8008C10.3656 19.8888 10.2819 19.9573 10.1841 19.9977C10.0863 20.038 9.9787 20.0484 9.87497 20.0275C9.77124 20.0067 9.67604 19.9554 9.60144 19.8803C9.52684 19.8052 9.4762 19.7097 9.45595 19.6058C9.43569 19.5018 9.44673 19.3942 9.48766 19.2966C9.52859 19.199 9.59757 19.1157 9.68585 19.0573C9.77414 18.999 9.87775 18.9681 9.98357 18.9688C10.1247 18.9696 10.2598 19.0263 10.3593 19.1265C10.4589 19.2267 10.5147 19.3622 10.5147 19.5034Z" fill="white"/>
<path id="Vector_7" d="M16.9011 25.9168C16.9011 26.0233 16.8695 26.1274 16.8103 26.2159C16.7511 26.3044 16.667 26.3733 16.5686 26.4139C16.4702 26.4546 16.362 26.465 16.2576 26.444C16.1532 26.423 16.0575 26.3715 15.9824 26.2959C15.9074 26.2204 15.8565 26.1243 15.8361 26.0197C15.8157 25.9152 15.8268 25.8069 15.868 25.7087C15.9091 25.6105 15.9785 25.5267 16.0673 25.468C16.1561 25.4093 16.2604 25.3783 16.3668 25.3789C16.5088 25.3798 16.6447 25.4368 16.7448 25.5376C16.845 25.6383 16.9011 25.7747 16.9011 25.9168Z" fill="white"/>
<path id="Vector_8" d="M13.9178 24.6785C13.9178 24.7848 13.8863 24.8888 13.8273 24.9773C13.7682 25.0657 13.6842 25.1346 13.586 25.1754C13.4878 25.2161 13.3797 25.2267 13.2755 25.206C13.1712 25.1852 13.0754 25.134 13.0003 25.0588C12.9251 24.9836 12.8739 24.8877 12.8532 24.7834C12.8324 24.6791 12.8431 24.5709 12.8837 24.4726C12.9244 24.3744 12.9933 24.2904 13.0817 24.2313C13.1701 24.1722 13.274 24.1406 13.3803 24.1406C13.5229 24.1406 13.6596 24.1973 13.7604 24.2982C13.8612 24.399 13.9178 24.5358 13.9178 24.6785Z" fill="white"/>
<path id="Vector_9" d="M11.6915 22.4331C11.6921 22.5397 11.6611 22.6442 11.6022 22.7331C11.5434 22.822 11.4595 22.8915 11.3612 22.9326C11.2628 22.9737 11.1545 22.9846 11.0499 22.9639C10.9454 22.9433 10.8493 22.892 10.7739 22.8166C10.6986 22.7412 10.6473 22.645 10.6267 22.5404C10.606 22.4358 10.6169 22.3274 10.658 22.229C10.6991 22.1306 10.7685 22.0466 10.8574 21.9878C10.9462 21.9289 11.0506 21.8978 11.1572 21.8984C11.2989 21.8984 11.4348 21.9548 11.535 22.055C11.6352 22.1553 11.6915 22.2913 11.6915 22.4331Z" fill="white"/>
<path id="Vector_10" d="M14.9292 22.6382C15.0355 22.6382 15.1395 22.6066 15.2279 22.5475C15.3162 22.4884 15.3851 22.4044 15.4258 22.3062C15.4665 22.2079 15.4771 22.0997 15.4564 21.9954C15.4357 21.8911 15.3845 21.7952 15.3093 21.72C15.2341 21.6448 15.1384 21.5936 15.0341 21.5728C14.9298 21.5521 14.8218 21.5627 14.7235 21.6034C14.6253 21.6441 14.5414 21.7131 14.4823 21.8015C14.4233 21.89 14.3917 21.994 14.3917 22.1003C14.3913 22.1711 14.4049 22.2412 14.4318 22.3067C14.4586 22.3721 14.4982 22.4316 14.5482 22.4816C14.5982 22.5316 14.6576 22.5712 14.723 22.5981C14.7884 22.625 14.8585 22.6386 14.9292 22.6382Z" fill="white"/>
<path id="Vector_11" d="M18.5391 12.7065C18.5397 12.813 18.5087 12.9173 18.4501 13.0062C18.3914 13.0951 18.3077 13.1645 18.2095 13.2057C18.1113 13.2469 18.0032 13.258 17.8987 13.2376C17.7942 13.2172 17.6981 13.1662 17.6227 13.0911C17.5472 13.0161 17.4957 12.9202 17.4747 12.8158C17.4537 12.7114 17.4641 12.6031 17.5047 12.5046C17.5453 12.4062 17.6142 12.322 17.7026 12.2627C17.7911 12.2035 17.8951 12.1719 18.0016 12.1719C18.1436 12.1719 18.2798 12.2281 18.3805 12.3283C18.4813 12.4285 18.5383 12.5644 18.5391 12.7065Z" fill="white"/>
<path id="Vector_12" d="M16.9011 16.2651C16.9018 16.3718 16.8707 16.4762 16.8119 16.5651C16.7531 16.6541 16.6691 16.7235 16.5708 16.7646C16.4725 16.8057 16.3641 16.8166 16.2596 16.796C16.155 16.7753 16.0589 16.724 15.9836 16.6486C15.9082 16.5732 15.857 16.4771 15.8363 16.3725C15.8157 16.2678 15.8266 16.1594 15.8677 16.061C15.9087 15.9626 15.9781 15.8786 16.067 15.8198C16.1559 15.7609 16.2602 15.7298 16.3668 15.7305C16.5085 15.7305 16.6444 15.7868 16.7446 15.8871C16.8448 15.9873 16.9011 16.1233 16.9011 16.2651Z" fill="white"/>
<path id="Vector_13" d="M13.04 16.8022C13.1463 16.8022 13.2503 16.7707 13.3386 16.7116C13.427 16.6525 13.4959 16.5685 13.5366 16.4702C13.5773 16.3719 13.5879 16.2638 13.5672 16.1595C13.5465 16.0551 13.4953 15.9593 13.4201 15.8841C13.3449 15.8089 13.2492 15.7576 13.1449 15.7369C13.0406 15.7161 12.9325 15.7268 12.8343 15.7675C12.7361 15.8082 12.6522 15.8771 12.5931 15.9656C12.534 16.054 12.5025 16.158 12.5025 16.2644C12.5021 16.3351 12.5157 16.4053 12.5426 16.4707C12.5694 16.5362 12.609 16.5956 12.659 16.6456C12.709 16.6957 12.7684 16.7353 12.8338 16.7622C12.8992 16.789 12.9693 16.8027 13.04 16.8022Z" fill="white"/>
<path id="Vector_14" d="M10.5147 16.2651C10.5147 16.371 10.4833 16.4745 10.4244 16.5625C10.3656 16.6505 10.2819 16.719 10.1841 16.7594C10.0863 16.7998 9.9787 16.8102 9.87497 16.7893C9.77124 16.7684 9.67604 16.7171 9.60144 16.642C9.52684 16.567 9.4762 16.4714 9.45595 16.3675C9.43569 16.2636 9.44673 16.156 9.48766 16.0583C9.52859 15.9607 9.59757 15.8774 9.68585 15.819C9.77414 15.7607 9.87775 15.7298 9.98357 15.7305C10.1247 15.7313 10.2598 15.788 10.3593 15.8882C10.4589 15.9884 10.5147 16.1239 10.5147 16.2651Z" fill="white"/>
<path id="Vector_15" d="M16.9011 9.86597C16.9011 9.97248 16.8695 10.0766 16.8103 10.1651C16.7511 10.2536 16.667 10.3226 16.5686 10.3632C16.4702 10.4038 16.362 10.4142 16.2576 10.3932C16.1532 10.3722 16.0575 10.3207 15.9824 10.2451C15.9074 10.1696 15.8565 10.0735 15.8361 9.96893C15.8157 9.86439 15.8268 9.75615 15.868 9.65793C15.9091 9.55972 15.9785 9.47594 16.0673 9.41723C16.1561 9.35851 16.2604 9.3275 16.3668 9.32813C16.5088 9.32898 16.6447 9.38601 16.7448 9.48678C16.845 9.58756 16.9011 9.72388 16.9011 9.86597Z" fill="white"/>
<path id="Vector_16" d="M13.9178 11.0886C13.9178 11.195 13.8863 11.299 13.8273 11.3874C13.7682 11.4759 13.6842 11.5448 13.586 11.5855C13.4878 11.6262 13.3797 11.6369 13.2755 11.6161C13.1712 11.5954 13.0754 11.5441 13.0003 11.4689C12.9251 11.3937 12.8739 11.2979 12.8532 11.1935C12.8324 11.0892 12.8431 10.9811 12.8837 10.8828C12.9244 10.7845 12.9933 10.7005 13.0817 10.6414C13.1701 10.5823 13.274 10.5508 13.3803 10.5508C13.5229 10.5508 13.6596 10.6074 13.7604 10.7083C13.8612 10.8092 13.9178 10.946 13.9178 11.0886Z" fill="white"/>
<path id="Vector_17" d="M11.6915 13.3347C11.6915 13.4412 11.6599 13.5453 11.6007 13.6339C11.5415 13.7224 11.4573 13.7913 11.3589 13.8319C11.2605 13.8725 11.1523 13.883 11.048 13.862C10.9436 13.841 10.8478 13.7894 10.7728 13.7139C10.6977 13.6384 10.6468 13.5422 10.6264 13.4377C10.606 13.3331 10.6171 13.2249 10.6583 13.1267C10.6995 13.0285 10.7689 12.9447 10.8577 12.886C10.9465 12.8273 11.0507 12.7963 11.1572 12.7969C11.2989 12.7986 11.4343 12.8559 11.5343 12.9564C11.6342 13.057 11.6907 13.1929 11.6915 13.3347Z" fill="white"/>
<path id="Vector_18" d="M15.4667 13.6668C15.4667 13.7731 15.4352 13.8771 15.3762 13.9656C15.3171 14.054 15.2331 14.1229 15.1349 14.1636C15.0367 14.2044 14.9286 14.215 14.8244 14.1943C14.7201 14.1735 14.6243 14.1223 14.5492 14.0471C14.474 13.9718 14.4228 13.876 14.4021 13.7717C14.3813 13.6673 14.392 13.5592 14.4326 13.4609C14.4733 13.3627 14.5422 13.2787 14.6306 13.2196C14.719 13.1605 14.8229 13.1289 14.9292 13.1289C14.9999 13.1285 15.07 13.1421 15.1354 13.169C15.2008 13.1959 15.2603 13.2355 15.3102 13.2855C15.3602 13.3355 15.3998 13.395 15.4267 13.4604C15.4535 13.5259 15.4672 13.596 15.4667 13.6668Z" fill="white"/>
<path id="Vector_19" d="M20.0371 19.5034C20.0371 19.609 20.0058 19.7123 19.9473 19.8001C19.8887 19.888 19.8054 19.9565 19.708 19.9971C19.6105 20.0376 19.5033 20.0484 19.3997 20.028C19.2961 20.0076 19.2009 19.957 19.1261 19.8826C19.0512 19.8081 19.0001 19.7132 18.9791 19.6097C18.9581 19.5062 18.9683 19.3988 19.0082 19.301C19.0482 19.2033 19.1162 19.1195 19.2036 19.0604C19.2911 19.0013 19.3941 18.9694 19.4996 18.9688C19.57 18.9683 19.6399 18.9819 19.7051 19.0085C19.7703 19.0352 19.8295 19.0745 19.8795 19.1242C19.9294 19.1739 19.9691 19.233 19.9961 19.2981C20.0232 19.3631 20.0371 19.4329 20.0371 19.5034Z" fill="white"/>
<path id="Vector_20" d="M23.3512 19.5034C23.3518 19.6101 23.3207 19.7145 23.2619 19.8034C23.2031 19.8923 23.1192 19.9618 23.0208 20.0029C22.9225 20.044 22.8142 20.0549 22.7096 20.0342C22.605 20.0136 22.509 19.9623 22.4336 19.8869C22.3583 19.8115 22.307 19.7154 22.2864 19.6107C22.2657 19.5061 22.2766 19.3977 22.3177 19.2993C22.3588 19.2009 22.4282 19.1169 22.517 19.0581C22.6059 18.9992 22.7103 18.9681 22.8169 18.9688C22.9586 18.9688 23.0945 19.0251 23.1947 19.1254C23.2949 19.2256 23.3512 19.3616 23.3512 19.5034Z" fill="white"/>
<path id="Vector_21" d="M26.3981 19.5034C26.3981 19.609 26.3668 19.7123 26.3083 19.8001C26.2497 19.888 26.1664 19.9565 26.069 19.9971C25.9715 20.0376 25.8643 20.0484 25.7607 20.028C25.6571 20.0076 25.5619 19.957 25.4871 19.8826C25.4122 19.8081 25.3611 19.7132 25.3401 19.6097C25.3191 19.5062 25.3293 19.3988 25.3692 19.301C25.4092 19.2033 25.4772 19.1195 25.5646 19.0604C25.6521 19.0013 25.755 18.9694 25.8606 18.9688C25.931 18.9683 26.0008 18.9819 26.066 19.0085C26.1312 19.0352 26.1905 19.0745 26.2405 19.1242C26.2904 19.1739 26.3301 19.233 26.3571 19.2981C26.3842 19.3631 26.3981 19.4329 26.3981 19.5034Z" fill="white"/>
<path id="Vector_22" d="M20.0371 25.9175C20.0371 26.0593 19.9808 26.1953 19.8806 26.2955C19.7804 26.3958 19.6445 26.4521 19.5028 26.4521C19.3611 26.4521 19.2252 26.3958 19.125 26.2955C19.0248 26.1953 18.9685 26.0593 18.9685 25.9175C18.9685 25.7757 19.0248 25.6397 19.125 25.5394C19.2252 25.4391 19.3611 25.3828 19.5028 25.3828C19.6445 25.3828 19.7804 25.4391 19.8806 25.5394C19.9808 25.6397 20.0371 25.7757 20.0371 25.9175Z" fill="white"/>
<path id="Vector_23" d="M23.0045 24.6785C23.0045 24.785 22.9729 24.8891 22.9137 24.9776C22.8545 25.0661 22.7704 25.1351 22.672 25.1757C22.5736 25.2163 22.4653 25.2267 22.361 25.2057C22.2566 25.1847 22.1608 25.1332 22.0858 25.0576C22.0108 24.9821 21.9598 24.886 21.9394 24.7814C21.9191 24.6769 21.9302 24.5687 21.9713 24.4704C22.0125 24.3722 22.0819 24.2884 22.1707 24.2297C22.2595 24.171 22.3637 24.14 22.4702 24.1406C22.5406 24.1406 22.6104 24.1546 22.6754 24.1816C22.7404 24.2087 22.7995 24.2484 22.8491 24.2984C22.8988 24.3483 22.9381 24.4077 22.9647 24.4729C22.9914 24.5381 23.0049 24.608 23.0045 24.6785Z" fill="white"/>
<path id="Vector_24" d="M25.2372 22.4402C25.2372 22.5466 25.2057 22.6505 25.1466 22.739C25.0876 22.8274 25.0036 22.8964 24.9054 22.9371C24.8072 22.9778 24.6991 22.9884 24.5948 22.9677C24.4906 22.9469 24.3948 22.8957 24.3196 22.8205C24.2445 22.7453 24.1933 22.6494 24.1725 22.5451C24.1518 22.4408 24.1624 22.3326 24.2031 22.2344C24.2438 22.1361 24.3127 22.0521 24.4011 21.993C24.4895 21.9339 24.5934 21.9023 24.6997 21.9023C24.8423 21.9023 24.979 21.959 25.0798 22.0599C25.1806 22.1607 25.2372 22.2975 25.2372 22.4402Z" fill="white"/>
<path id="Vector_25" d="M20.9245 22.6382C21.0308 22.6382 21.1347 22.6066 21.2231 22.5475C21.3115 22.4884 21.3804 22.4044 21.4211 22.3062C21.4617 22.2079 21.4724 22.0997 21.4516 21.9954C21.4309 21.8911 21.3797 21.7952 21.3045 21.72C21.2294 21.6448 21.1336 21.5936 21.0293 21.5728C20.9251 21.5521 20.817 21.5627 20.7188 21.6034C20.6206 21.6441 20.5366 21.7131 20.4775 21.8015C20.4185 21.89 20.387 21.994 20.387 22.1003C20.387 22.243 20.4436 22.3798 20.5444 22.4806C20.6452 22.5815 20.7819 22.6382 20.9245 22.6382Z" fill="white"/>
<path id="Vector_26" d="M20.0371 16.2651C20.0371 16.3707 20.0058 16.474 19.9473 16.5618C19.8887 16.6497 19.8054 16.7182 19.708 16.7588C19.6105 16.7993 19.5033 16.8101 19.3997 16.7897C19.2961 16.7694 19.2009 16.7188 19.1261 16.6443C19.0512 16.5698 19.0001 16.4749 18.9791 16.3714C18.9581 16.2679 18.9683 16.1605 19.0082 16.0627C19.0482 15.965 19.1162 15.8813 19.2036 15.8221C19.2911 15.763 19.3941 15.7311 19.4996 15.7305C19.57 15.7301 19.6399 15.7436 19.7051 15.7703C19.7703 15.7969 19.8295 15.8363 19.8795 15.8859C19.9294 15.9356 19.9691 15.9947 19.9961 16.0598C20.0232 16.1249 20.0371 16.1947 20.0371 16.2651Z" fill="white"/>
<path id="Vector_27" d="M23.3512 16.2651C23.3518 16.3718 23.3207 16.4762 23.2619 16.5651C23.2031 16.6541 23.1192 16.7235 23.0208 16.7646C22.9225 16.8057 22.8142 16.8166 22.7096 16.796C22.605 16.7753 22.509 16.724 22.4336 16.6486C22.3583 16.5732 22.307 16.4771 22.2864 16.3725C22.2657 16.2678 22.2766 16.1594 22.3177 16.061C22.3588 15.9626 22.4282 15.8786 22.517 15.8198C22.6059 15.7609 22.7103 15.7298 22.8169 15.7305C22.9586 15.7305 23.0945 15.7868 23.1947 15.8871C23.2949 15.9873 23.3512 16.1233 23.3512 16.2651Z" fill="white"/>
<path id="Vector_28" d="M26.3981 16.2651C26.3981 16.3707 26.3668 16.474 26.3083 16.5618C26.2497 16.6497 26.1664 16.7182 26.069 16.7588C25.9715 16.7993 25.8643 16.8101 25.7607 16.7897C25.6571 16.7694 25.5619 16.7188 25.4871 16.6443C25.4122 16.5698 25.3611 16.4749 25.3401 16.3714C25.3191 16.2679 25.3293 16.1605 25.3692 16.0627C25.4092 15.965 25.4772 15.8813 25.5646 15.8221C25.6521 15.763 25.755 15.7311 25.8606 15.7305C25.931 15.7301 26.0008 15.7436 26.066 15.7703C26.1312 15.7969 26.1905 15.8363 26.2405 15.8859C26.2904 15.9356 26.3301 15.9947 26.3571 16.0598C26.3842 16.1249 26.3981 16.1947 26.3981 16.2651Z" fill="white"/>
<path id="Vector_29" d="M20.0371 9.86596C20.0365 9.97143 20.0047 10.0744 19.9457 10.1618C19.8868 10.2492 19.8033 10.3173 19.7058 10.3573C19.6083 10.3974 19.5011 10.4077 19.3978 10.387C19.2944 10.3663 19.1995 10.3154 19.125 10.2408C19.0504 10.1662 18.9996 10.0713 18.9789 9.96786C18.9582 9.86444 18.9685 9.75721 19.0085 9.65964C19.0486 9.56208 19.1166 9.47854 19.204 9.41956C19.2913 9.36057 19.3942 9.32875 19.4996 9.32812C19.6422 9.32813 19.7789 9.38479 19.8797 9.48565C19.9805 9.58652 20.0371 9.72332 20.0371 9.86596Z" fill="white"/>
<path id="Vector_30" d="M23.0045 11.0886C23.0045 11.1951 22.9729 11.2992 22.9137 11.3878C22.8545 11.4763 22.7704 11.5452 22.672 11.5858C22.5736 11.6264 22.4653 11.6369 22.361 11.6159C22.2566 11.5949 22.1608 11.5433 22.0858 11.4678C22.0108 11.3923 21.9598 11.2961 21.9394 11.1916C21.9191 11.087 21.9302 10.9788 21.9713 10.8806C22.0125 10.7824 22.0819 10.6986 22.1707 10.6399C22.2595 10.5812 22.3637 10.5502 22.4702 10.5508C22.6122 10.5516 22.7481 10.6087 22.8482 10.7094C22.9483 10.8102 23.0045 10.9465 23.0045 11.0886Z" fill="white"/>
<path id="Vector_31" d="M24.6997 13.8725C24.8064 13.8744 24.9112 13.8444 25.0009 13.7865C25.0905 13.7286 25.1609 13.6452 25.203 13.5471C25.2452 13.4491 25.2572 13.3406 25.2376 13.2357C25.2179 13.1307 25.1675 13.034 25.0927 12.9578C25.0179 12.8816 24.9222 12.8295 24.8177 12.8079C24.7132 12.7864 24.6046 12.7965 24.5058 12.8369C24.407 12.8773 24.3225 12.9462 24.263 13.0349C24.2035 13.1235 24.1718 13.2279 24.1717 13.3346C24.1717 13.4756 24.227 13.611 24.3258 13.7116C24.4245 13.8122 24.5588 13.87 24.6997 13.8725Z" fill="white"/>
<path id="Vector_32" d="M21.462 13.6667C21.462 13.7731 21.4304 13.8771 21.3714 13.9655C21.3123 14.054 21.2284 14.1229 21.1302 14.1636C21.0319 14.2043 20.9239 14.215 20.8196 14.1942C20.7153 14.1735 20.6196 14.1223 20.5444 14.047C20.4692 13.9718 20.418 13.876 20.3973 13.7717C20.3765 13.6673 20.3872 13.5592 20.4279 13.4609C20.4686 13.3626 20.5375 13.2786 20.6258 13.2195C20.7142 13.1604 20.8182 13.1289 20.9245 13.1289C21.067 13.1289 21.2037 13.1856 21.3045 13.2864C21.4053 13.3873 21.462 13.5241 21.462 13.6667Z" fill="white"/>
<path id="Vector_33" d="M31.7636 10.1847C31.3955 9.1064 30.8588 8.09344 30.1733 7.18359C30.7632 8.14569 31.2341 9.17585 31.5759 10.2515C31.8145 11.1649 32.1166 12.0687 32.2756 12.998C32.2776 13.0133 32.2763 13.0288 32.2719 13.0436C32.2676 13.0584 32.2602 13.0721 32.2502 13.0839C32.2394 13.096 32.2262 13.1056 32.2114 13.1122C32.1966 13.1188 32.1805 13.1221 32.1643 13.1221H31.401L31.4742 13.3353H32.1643C32.2111 13.3354 32.2572 13.3251 32.2995 13.3053C32.3419 13.2855 32.3793 13.2566 32.4092 13.2207C32.439 13.186 32.4609 13.1453 32.4735 13.1014C32.4862 13.0575 32.4892 13.0113 32.4824 12.9661C32.3222 12.0202 32.0817 11.0897 31.7636 10.1847Z" fill="#00D2FF"/>
<path id="Vector_34" d="M29.4227 12.0342L28.6753 9.73324C28.462 9.11499 28.32 8.47432 28.2523 7.82377L28.211 6.55078L28.1092 7.71874C28.1094 8.43058 28.2332 9.13697 28.475 9.80644L29.1969 12.0342H29.4227Z" fill="#00D2FF"/>
<path id="Vector_35" d="M31.3883 13.1189L31.207 12.6448C31.1382 12.4626 31.0155 12.3059 30.8552 12.1955C30.6949 12.0851 30.5047 12.0265 30.3101 12.0274H29.4291H29.1969L29.515 13.0489C29.5415 13.1276 29.592 13.1959 29.6593 13.2444C29.7266 13.2929 29.8073 13.3191 29.8903 13.3194H31.4487L31.3883 13.1189Z" fill="white"/>
<path id="Vector_36" d="M3.95972 10.1847C4.32775 9.1064 4.86451 8.09344 5.54996 7.18359C4.96145 8.14639 4.49055 9.17639 4.14736 10.2515C3.90883 11.1649 3.60668 12.0687 3.45084 12.998C3.448 13.0133 3.44882 13.029 3.45324 13.044C3.45767 13.0589 3.46556 13.0726 3.47628 13.0839C3.48615 13.0962 3.49877 13.1061 3.51312 13.1127C3.52747 13.1194 3.54317 13.1226 3.55897 13.1221H4.32229L4.24914 13.3353H3.57169C3.52497 13.3354 3.4788 13.3251 3.43648 13.3053C3.39415 13.2855 3.3567 13.2566 3.3268 13.2207C3.29705 13.186 3.27511 13.1453 3.26249 13.1014C3.24987 13.0575 3.24685 13.0113 3.25365 12.9661C3.4127 12.0212 3.64885 11.091 3.95972 10.1847Z" fill="#00D2FF"/>
<path id="Vector_37" d="M6.30055 12.0342L7.04797 9.73324C7.26133 9.11499 7.40325 8.47432 7.47097 7.82377L7.51232 6.55078L7.6141 7.71874C7.61544 8.43072 7.49163 9.13738 7.24834 9.80644L6.52637 12.0342H6.30055Z" fill="#00D2FF"/>
<path id="Vector_38" d="M4.33502 13.1189L4.5163 12.6447C4.58467 12.4636 4.70646 12.3076 4.86551 12.1973C5.02455 12.087 5.21335 12.0278 5.40684 12.0273H6.28466H6.51683L6.19878 13.0489C6.17266 13.1278 6.12232 13.1964 6.05493 13.245C5.98754 13.2936 5.90654 13.3196 5.82349 13.3194H4.26186L4.33502 13.1189Z" fill="white"/>
<path id="Vector_39" d="M3.96607 25.1421C4.3316 26.2205 4.86858 27.2328 5.55632 28.14C4.96515 27.1786 4.4941 26.1483 4.15372 25.0721C3.91201 24.1587 3.60986 23.2549 3.45402 22.3256C3.45118 22.3103 3.452 22.2946 3.45642 22.2796C3.46085 22.2647 3.46874 22.251 3.47946 22.2397C3.48982 22.2271 3.50298 22.2171 3.51789 22.2105C3.53279 22.2038 3.54904 22.2008 3.56533 22.2015H4.32865L4.25232 21.9883H3.57805C3.53079 21.9878 3.48401 21.9978 3.44109 22.0176C3.39818 22.0374 3.36022 22.0665 3.32998 22.1029C3.29978 22.1379 3.2776 22.1792 3.26496 22.2237C3.25233 22.2682 3.24955 22.3149 3.25682 22.3607C3.41621 23.3058 3.65344 24.2361 3.96607 25.1421Z" fill="#00D2FF"/>
<path id="Vector_40" d="M6.30692 23.2852L7.05115 25.5829C7.26432 26.2012 7.40624 26.8418 7.47416 27.4924L7.5155 28.7654L7.63318 27.6006C7.63468 26.8896 7.51086 26.184 7.26742 25.5161L6.54545 23.2883H6.32282L6.30692 23.2852Z" fill="#00D2FF"/>
<path id="Vector_41" d="M4.34137 22.1998L4.51948 22.674C4.58765 22.8546 4.70895 23.0103 4.86737 23.1205C5.02579 23.2307 5.21388 23.2903 5.40683 23.2914H6.28465H6.51683L6.19878 22.2698C6.1732 22.1903 6.12309 22.121 6.05566 22.0718C5.98822 22.0226 5.90693 21.9961 5.82348 21.9961H4.26504L4.34137 22.1998Z" fill="white"/>
<path id="Vector_42" d="M31.7636 25.1421C31.3955 26.2193 30.8587 27.2312 30.1733 28.14C30.7645 27.1786 31.2356 26.1483 31.5759 25.0721C31.8145 24.1587 32.1166 23.2549 32.2756 22.3256C32.2776 22.3103 32.2763 22.2948 32.2719 22.28C32.2676 22.2652 32.2602 22.2515 32.2502 22.2397C32.2394 22.2276 32.2262 22.218 32.2114 22.2114C32.1966 22.2048 32.1805 22.2014 32.1643 22.2015H31.401L31.4742 21.9883H32.1643C32.2111 21.9882 32.2572 21.9984 32.2995 22.0182C32.3419 22.038 32.3793 22.0669 32.4092 22.1029C32.4394 22.1379 32.4616 22.1791 32.4742 22.2237C32.4869 22.2682 32.4896 22.3149 32.4824 22.3606C32.3214 23.3064 32.081 24.2368 31.7636 25.1421Z" fill="#00D2FF"/>
<path id="Vector_43" d="M29.4227 23.2844L28.6753 25.5822C28.4622 26.2005 28.3202 26.8411 28.2523 27.4916L28.211 28.7646L28.1092 27.5935C28.1091 26.8827 28.2329 26.1773 28.475 25.509L29.1969 23.2812H29.4227V23.2844Z" fill="#00D2FF"/>
<path id="Vector_44" d="M31.3883 22.2015L31.207 22.6757C31.1382 22.8578 31.0155 23.0146 30.8552 23.1249C30.6949 23.2353 30.5047 23.294 30.3101 23.2931H29.4291H29.1969L29.515 22.2715C29.5396 22.1895 29.5901 22.1176 29.6589 22.0666C29.7276 22.0155 29.811 21.9881 29.8966 21.9883H31.4551L31.3883 22.2015Z" fill="white"/>
</g>
<defs>
<clipPath id="clip0_17655_9017">
<rect width="36" height="36" fill="white"/>
</clipPath>
</defs>
</svg>
